<?xml version="1.0" encoding="utf-8"?>
<!-- Generator: Adobe Illustrator 18.1.0, SVG Export Plug-In . SVG Version: 6.00 Build 0)  -->
<svg version="1.1" id="Capa_1" xmlns="http://www.w3.org/2000/svg" xmlns:xlink="http://www.w3.org/1999/xlink" x="0px" y="0px"
	 viewBox="0 0 612 792" enable-background="new 0 0 612 792" xml:space="preserve">
<g>
	<path fill="none" stroke="#000000" stroke-miterlimit="10" d="M361.6,463.9"/>
	<circle fill="#00A79D" cx="311.9" cy="329.1" r="143.2"/>
	<path fill="#BE1E2D" d="M396.8,239.7H218.3c-0.9,0-1.5,0.7-1.5,1.5v177.2h178.5c0.9,0,1.5-0.7,1.5-1.5V239.7z"/>
	<rect x="229" y="266.3" fill="#FFFFFF" width="151.9" height="135.1"/>
	<path fill="#DA1C5C" d="M395.8,273.8c10.4-0.5,19,14.3,19.3,33.1l0-0.1c0.3,20-7.8,36.6-18.1,37.1"/>
	<path fill="#FFFFFF" stroke="#000000" stroke-miterlimit="10" d="M176.3,297.3"/>
	<rect x="338.1" y="286.4" fill="#FFFFFF" stroke="#000000" stroke-miterlimit="10" width="24.1" height="23.6"/>
	<rect x="251.2" y="286.4" fill="#DA1C5C" stroke="#FFFFFF" stroke-miterlimit="10" width="24.1" height="23.6"/>
	<rect x="294.7" y="286.4" fill="#FFFFFF" stroke="#000000" stroke-miterlimit="10" width="24.1" height="23.6"/>
	<rect x="338.1" y="321.8" fill="#FFFFFF" stroke="#000000" stroke-miterlimit="10" width="24.1" height="23.6"/>
	<rect x="251.2" y="321.8" fill="#FFFFFF" stroke="#000000" stroke-miterlimit="10" width="24.1" height="23.6"/>
	<rect x="294.7" y="321.8" fill="#FFFFFF" stroke="#000000" stroke-miterlimit="10" width="24.1" height="23.6"/>
	<rect x="338.1" y="357.8" fill="#FFFFFF" stroke="#000000" stroke-miterlimit="10" width="24.1" height="23.6"/>
	<rect x="251.2" y="357.8" fill="#FFFFFF" stroke="#000000" stroke-miterlimit="10" width="24.1" height="23.6"/>
	<rect x="294.7" y="357.8" fill="#F7941E" stroke="#FFFFFF" stroke-miterlimit="10" width="24.1" height="23.6"/>
	<path fill="#FFFFFF" d="M269.1,256.1h-7.4c-0.8,0-1.5-0.7-1.5-1.5v-29.8c0-0.8,0.7-1.5,1.5-1.5h7.4c0.8,0,1.5,0.7,1.5,1.5v29.8
		C270.6,255.4,269.9,256.1,269.1,256.1z"/>
	<path fill="#FFFFFF" d="M351.8,256.1h-7.4c-0.8,0-1.5-0.7-1.5-1.5v-29.8c0-0.8,0.7-1.5,1.5-1.5h7.4c0.8,0,1.5,0.7,1.5,1.5v29.8
		C353.3,255.4,352.6,256.1,351.8,256.1z"/>
	<path fill="#FFFFFF" d="M310.5,256.1H303c-0.8,0-1.5-0.7-1.5-1.5v-29.8c0-0.8,0.7-1.5,1.5-1.5h7.4c0.8,0,1.5,0.7,1.5,1.5v29.8
		C311.9,255.4,311.3,256.1,310.5,256.1z"/>
	<path fill="#F7941E" d="M396.3,309.9c10.4,0,18.7-16.2,18.7-36.2v0.1c0-18.8-8.4-34.1-18.7-34.1"/>
</g>
</svg>
